<svg xmlns="http://www.w3.org/2000/svg" viewBox="0 0 82 76">
    <g fill="none" fill-rule="evenodd" stroke-linecap="round" stroke-linejoin="round" stroke-width="3.3">
        <path stroke="#575756" d="M51.923 38c0-1.034-.113-2.04-.318-3.013l5.352-3.119-4.388-7.674-5.365 3.127a14.216 14.216 0 0 0-5.156-3.02v-6.24h-8.777v6.24a14.234 14.234 0 0 0-5.156 3.02l-5.365-3.127-4.388 7.674 5.352 3.12A14.569 14.569 0 0 0 23.396 38c0 1.034.113 2.04.318 3.012l-5.352 3.12 4.388 7.674 5.365-3.127a14.216 14.216 0 0 0 5.156 3.019v6.24h8.777v-6.24a14.198 14.198 0 0 0 5.156-3.019l5.365 3.127 4.388-7.674-5.352-3.12c.205-.971.318-1.978.318-3.012z"/>
        <path stroke="#00DCFF" d="M37.66 45.2c-3.94 0-7.132-3.223-7.132-7.2 0-3.976 3.192-7.2 7.132-7.2 3.939 0 7.131 3.224 7.131 7.2"/>
        <path stroke="#00DCFF" d="M72.77 38c0 19.576-15.72 35.446-35.11 35.446-19.392 0-35.112-15.87-35.112-35.446S18.268 2.554 37.66 2.554"/>
        <path stroke="#00DCFF" d="M65.352 45.464l7.261-7.556 7.485 7.33"/>
    </g>
</svg>
