<svg xmlns="http://www.w3.org/2000/svg" viewBox="0 0 97 58">
    <g fill="none" fill-rule="evenodd">
        <path stroke="#00DCFF" stroke-linecap="round" stroke-linejoin="round" stroke-width="3" d="M18.896 23.096h58.788"/>
        <path stroke="#575756" stroke-linecap="round" stroke-linejoin="round" stroke-width="3" d="M48.29 44.691a21.528 21.528 0 0 1-15.27-6.325c-8.434-8.434-8.434-22.108 0-30.54 8.433-8.435 22.107-8.435 30.541 0 8.434 8.432 8.434 22.106 0 30.54a21.554 21.554 0 0 1-7.08 4.718M32.084 38.645L14.269 56.46"/>
        <path fill="#FFF" d="M60.888 23.096c0 6.958-5.64 12.597-12.598 12.597-6.957 0-12.597-5.64-12.597-12.597 0-6.958 5.64-12.598 12.597-12.598 6.958 0 12.598 5.64 12.598 12.598"/>
        <path stroke="#00DCFF" stroke-linecap="round" stroke-linejoin="round" stroke-width="3" d="M60.888 23.096c0 6.958-5.64 12.597-12.598 12.597-6.957 0-12.597-5.64-12.597-12.597 0-6.958 5.64-12.598 12.597-12.598 6.958 0 12.598 5.64 12.598 12.598zM95.081 23.096a8.398 8.398 0 1 1-16.796 0 8.398 8.398 0 0 1 16.796 0zM18.296 23.096a8.398 8.398 0 1 1-16.796 0 8.398 8.398 0 0 1 16.796 0z"/>
    </g>
</svg>
