<svg xmlns="http://www.w3.org/2000/svg" viewBox="0 0 263 229">
    <g fill="#FFF" fill-rule="evenodd" stroke="#00DCFF" stroke-linecap="round" stroke-width="3">
        <path d="M115.083 116.651C106.631 94.621 85.38 79 60.488 79 28.183 79 2 105.315 2 137.782c0 32.46 26.183 58.783 58.488 58.783L211 197"/>
        <path d="M114.575 117.045A98.269 98.269 0 0 1 113 99.503C113 45.654 156.649 2 210.5 2 264.344 2 308 45.654 308 99.503 308 153.346 264.344 197 210.5 197"/>
        <g>
            <path d="M133.976 183.735c-4.557-11.862-16.017-20.273-29.438-20.273-17.42 0-31.538 14.17-31.538 31.652 0 17.478 14.119 31.652 31.538 31.652l81.158.234"/>
            <path d="M133.702 183.947a52.842 52.842 0 0 1-.85-9.445c0-28.996 23.537-52.502 52.574-52.502C214.46 122 238 145.506 238 174.502 238 203.494 214.46 227 185.426 227"/>
        </g>
    </g>
</svg>
