<svg xmlns="http://www.w3.org/2000/svg" viewBox="0 0 240 183">
    <g fill="#FFF" fill-rule="evenodd" stroke="#00DCFF" stroke-linecap="round" stroke-width="3">
        <path d="M133.976 63.735c-4.557-11.862-16.017-20.273-29.438-20.273C87.118 43.462 73 57.632 73 75.114c0 17.478 14.119 31.652 31.538 31.652l81.158.234"/>
        <path d="M133.702 63.947a52.842 52.842 0 0 1-.85-9.445C132.853 25.506 156.39 2 185.427 2 214.46 2 238 25.506 238 54.502 238 83.494 214.46 107 185.426 107"/>
        <g>
            <path d="M42.106 120.017C35.67 103.297 19.488 91.441.535 91.441-24.063 91.441-44 111.414-44 136.055c0 24.637 19.937 44.614 44.535 44.614l114.606.331"/>
            <path d="M41.72 120.316a74.35 74.35 0 0 1-1.2-13.313C40.52 66.133 73.756 33 114.76 33 155.759 33 189 66.133 189 107.003 189 147.867 155.759 181 114.76 181"/>
        </g>
    </g>
</svg>
