<svg id="Icon_Mail" data-name="Icon Mail" xmlns="http://www.w3.org/2000/svg" viewBox="0 0 43 34"><defs><style></style></defs><path class="cls-1" d="M4.13,10.66l4.92,3.5c2.73,1.94,4.83,3.43,6.28,4.48l1,.75,1.3.93c.35.24.76.5,1.25.8a7.28,7.28,0,0,0,1.38.66,3.54,3.54,0,0,0,1.2.22h.05a3.54,3.54,0,0,0,1.2-.22,7.28,7.28,0,0,0,1.38-.66c.49-.29.9-.56,1.25-.8l1.3-.93,1-.75,11.23-8a11.49,11.49,0,0,0,2.92-3A6.58,6.58,0,0,0,43,3.93a3.82,3.82,0,0,0-1.14-2.78A3.67,3.67,0,0,0,39.16,0H3.84A3.39,3.39,0,0,0,1,1.28,5,5,0,0,0,0,4.47,5.81,5.81,0,0,0,1.32,7.82,12,12,0,0,0,4.13,10.66Z"/><path class="cls-1" d="M28.65,21.42c-.91.67-1.65,1.2-2.22,1.58a13.82,13.82,0,0,1-2.27,1.15,6.86,6.86,0,0,1-2.64.59h-.05a6.81,6.81,0,0,1-2.63-.59A13.82,13.82,0,0,1,16.57,23c-.57-.38-1.31-.91-2.22-1.58Q11.11,19,2.42,13.1A12.72,12.72,0,0,1,0,11V30.14a3.7,3.7,0,0,0,1.13,2.73A3.73,3.73,0,0,0,3.84,34H39.16A3.86,3.86,0,0,0,43,30.14V11a13.35,13.35,0,0,1-2.4,2.1Q32.73,18.46,28.65,21.42Z"/></svg>
