<svg id="Ebene_1" data-name="Ebene 1" xmlns="http://www.w3.org/2000/svg" viewBox="0 0 16 16"><defs><style></style></defs><title>world</title><path class="cls-1" d="M12.76,12.66c-.21-.17-.39-.34-.59-.47s-.41-.36-.56-.31c-.34.1-.55-.09-.8-.21a.85.85,0,0,0-1,.27,1.56,1.56,0,0,1-.29.21c.08.47.21,1-.3,1.43a2.65,2.65,0,0,1-.11,1,6.53,6.53,0,0,0,3.66-1.91M7.05,2.34c0-.19-.21-.19-.4-.18H6.26C6.11,2.18,6,2.12,6,2s-.1-.27-.27-.23a4.25,4.25,0,0,0-.5.21c.26,0,.5-.16.63.15-.2,0-.46,0-.48.27-.28-.2-.48-.27-.66-.17A6.48,6.48,0,0,0,2.33,4.5l.88.75a.86.86,0,0,1,.13.14.37.37,0,0,1,0,.15H3.21l-.09,0a6.34,6.34,0,0,0,0,.74,1.92,1.92,0,0,0,.13.8A1.84,1.84,0,0,0,4,7.91a.31.31,0,0,1,.12.15l.74,1.39.12-.06L4.4,8.26l.08,0a2.09,2.09,0,0,1,.14.17,2.88,2.88,0,0,0,.22.38c.22.28.47.55.69.84a1.85,1.85,0,0,1,.18.43c0,.1,0,.25.12.29.39.23.73.62,1.26.51a.29.29,0,0,1,.21,0,1.28,1.28,0,0,0,.9.48s0,0,0,0a1.68,1.68,0,0,0,.72.77c.08.06.18.15.24.13s.11-.15.17-.25l-.11,0c-.42,0-.57-.24-.39-.61a.31.31,0,0,0,0-.13c-.06-.31-.18-.42-.5-.43a2.86,2.86,0,0,0-.33,0c.08-.23.15-.44.21-.65a2.11,2.11,0,0,0,0-.25A.57.57,0,0,0,8,10a.33.33,0,0,0-.18.22c-.06.22-.2.26-.4.26a.52.52,0,0,1-.49-.33,1.61,1.61,0,0,1-.06-.92.6.6,0,0,1,.66-.66.65.65,0,0,0,.44-.06c.19-.11.56,0,.83.11.08,0,.11.22.17.34s.13.23.2.35l.11,0c-.05-.26.11-.56-.18-.79a.25.25,0,0,1,0-.24A1,1,0,0,1,9.41,8a.54.54,0,0,0,.31-.68c0-.13,0-.33.21-.33.05,0,.14,0,.14-.05,0-.24.23-.22.36-.31a1,1,0,0,0,.14-.15,1.2,1.2,0,0,1,.24-.26,5.05,5.05,0,0,1,.59-.32l-.05-.51c-.17-.09-.18-.09-.6.13A1.15,1.15,0,0,1,12,5.16a2.91,2.91,0,0,0,.47-.27.59.59,0,0,0,.14-.23c-.18-.08-.19-.37-.47-.35-.1,0-.24-.13-.32-.24s-.24-.39-.38-.6l-.13.12c-.3.28-.47.24-.61-.13a.26.26,0,0,0-.13-.16,6.27,6.27,0,0,0-.81-.25c-.17,0-.24.05-.19.23a.44.44,0,0,1,0,.28c-.09.14-.05.22.07.3s.17.26,0,.35-.3.34-.12.58c-.16.17-.34.23-.43,0a.77.77,0,0,0-.64-.59,5.6,5.6,0,0,1-.87-.3c-.06,0-.08-.06-.13-.12a.61.61,0,0,1,.39-.92.64.64,0,0,0,.46-.3c.06-.1.21-.21.31-.19.4.06.4.07.37-.3,0-.08-.09-.22-.15-.22s-.18.07-.26.13-.18.19-.28.29L8.07,2,8,2a.3.3,0,0,1-.45-.15c-.07-.29-.27-.26-.46-.27A.17.17,0,0,0,7,1.65s0,.12.11.15a3,3,0,0,0,.3.16l-.32.38M8,0A8,8,0,1,1,0,8,8,8,0,0,1,8,0"/></svg>
