<svg xmlns="http://www.w3.org/2000/svg" xmlns:xlink="http://www.w3.org/1999/xlink" width="191" height="65" viewBox="0 0 191 65">
    <defs>
        <path id="a" d="M0 .809h73.213v48.234H0z"/>
    </defs>
    <g fill="none" fill-rule="evenodd">
        <path fill="#FFF" d="M49.095 15.228c-5.775 0-10.473 4.7-10.473 10.473 0 5.775 4.698 10.475 10.473 10.475 5.776 0 10.473-4.7 10.473-10.475 0-5.774-4.697-10.473-10.473-10.473m0 22.533c-6.649 0-12.058-5.41-12.058-12.06 0-6.649 5.41-12.058 12.058-12.058 6.65 0 12.059 5.409 12.059 12.058 0 6.65-5.41 12.06-12.059 12.06"/>
        <g transform="translate(0 .777)">
            <mask id="b" fill="#fff">
                <use xlink:href="#a"/>
            </mask>
            <path fill="#00DCFF" d="M49.095.808a23.961 23.961 0 0 0-17.053 7.063 25.203 25.203 0 0 0-1.587 1.749 1.587 1.587 0 0 0 2.45 2.015c.435-.53.898-1.042 1.378-1.522a20.812 20.812 0 0 1 14.812-6.134c11.55 0 20.948 9.396 20.948 20.946s-9.398 20.947-20.948 20.947a20.804 20.804 0 0 1-14.812-6.135 20.913 20.913 0 0 1-5.57-9.953V29.771l-.002-.008a21.06 21.06 0 0 1-.563-4.838v-4.506c0-.877-.709-1.585-1.586-1.585-.876 0-1.585.708-1.585 1.585v2.599c-2.548-2.604-6.04-4.146-9.91-4.146C6.76 18.872 0 25.63 0 33.938c0 8.309 6.76 15.067 15.067 15.067 3.968 0 7.35-1.105 9.91-3.131v1.584c0 .876.709 1.585 1.585 1.585.877 0 1.586-.709 1.586-1.585v-5.68c0-.078-.032-.145-.043-.22-.013-.077-.024-.15-.048-.225a1.491 1.491 0 0 0-.168-.372c-.031-.051-.06-.099-.098-.146a1.522 1.522 0 0 0-.333-.312c-.027-.02-.043-.048-.07-.065-.019-.013-.04-.011-.06-.023a1.522 1.522 0 0 0-.418-.153c-.065-.016-.127-.034-.192-.04-.054-.005-.102-.03-.156-.03-.084 0-.155.035-.234.047a1.57 1.57 0 0 0-.228.045c-.12.038-.226.089-.332.152a1.374 1.374 0 0 0-.206.138 1.52 1.52 0 0 0-.238.257c-.038.046-.087.074-.117.125-1.937 3.147-5.54 4.878-10.14 4.878-6.56 0-11.897-5.336-11.897-11.896 0-6.559 5.337-11.895 11.897-11.895 5.133 0 9.284 3.334 10.566 8.492l.002.004a24.059 24.059 0 0 0 6.407 11.44 23.957 23.957 0 0 0 17.053 7.064c13.3 0 24.118-10.819 24.118-24.118C73.213 11.627 62.395.808 49.095.808" mask="url(#b)"/>
        </g>
        <path fill="#FFF" d="M141.768 47.885c-1.03.266-2.102.4-3.185.4-7.018 0-12.726-5.708-12.726-12.725 0-7.019 5.708-12.727 12.726-12.727A12.72 12.72 0 0 1 151.31 35.56c0 5.81-3.923 10.877-9.542 12.325m.39-26.19a14.458 14.458 0 0 0-3.575-.448c-7.89 0-14.311 6.421-14.311 14.313 0 7.89 6.42 14.311 14.311 14.311 1.216 0 2.422-.152 3.581-.45a14.28 14.28 0 0 0 9.146-7.328v6.985a12.718 12.718 0 0 1-12.727 12.728h-5.57a.792.792 0 1 0 0 1.585h5.57a14.298 14.298 0 0 0 14.313-14.313V35.56a14.308 14.308 0 0 0-10.738-13.864M115.529 22.85a.793.793 0 0 0-.793.793v25.435a.793.793 0 0 0 1.586 0V23.643a.793.793 0 0 0-.793-.793M188.675 22.85a.793.793 0 0 0-.792.793v12.716a12.719 12.719 0 0 1-12.726 12.729c-7.018 0-12.727-5.71-12.727-12.73V23.644a.792.792 0 1 0-1.586 0v12.716c0 7.893 6.421 14.314 14.313 14.314a14.28 14.28 0 0 0 12.726-7.78v6.988a12.718 12.718 0 0 1-12.726 12.725h-5.57a.793.793 0 0 0 0 1.586h5.57a14.304 14.304 0 0 0 14.311-14.311V23.643a.793.793 0 0 0-.792-.793M92.035 48.285c-7.019 0-12.726-5.708-12.726-12.725 0-7.019 5.707-12.728 12.726-12.728 7.018 0 12.727 5.71 12.727 12.728 0 7.017-5.709 12.725-12.727 12.725m13.52-39.743a.792.792 0 0 0-.793.793v19.707c-2.376-4.62-7.183-7.795-12.727-7.795-7.892 0-14.311 6.42-14.311 14.313 0 7.89 6.419 14.31 14.31 14.31 5.545 0 10.352-3.173 12.728-7.794v7.002a.793.793 0 0 0 1.585 0V9.335a.79.79 0 0 0-.792-.793"/>
    </g>
</svg>
